<svg id="Layer_1" data-name="Layer 1" xmlns="http://www.w3.org/2000/svg" xmlns:xlink="http://www.w3.org/1999/xlink" viewBox="0 0 600 156.03"><defs><style>.cls-1{fill:url(#linear-gradient);}.cls-2{fill:url(#linear-gradient-2);}.cls-3{fill:url(#linear-gradient-3);}.cls-4{opacity:0.5;fill:url(#linear-gradient-4);}.cls-5{fill:url(#linear-gradient-5);}.cls-6{opacity:0.2;fill:url(#linear-gradient-6);}.cls-7{fill:url(#linear-gradient-7);}.cls-8{fill:url(#linear-gradient-8);}.cls-9{fill:url(#linear-gradient-9);}.cls-10{fill:#fff;}</style><linearGradient id="linear-gradient" x1="46.89" y1="122.48" x2="79.4" y2="75.92" gradientUnits="userSpaceOnUse"><stop offset="0" stop-color="#ff2205"/><stop offset="0.51" stop-color="#f14405"/><stop offset="1" stop-color="#f17405"/></linearGradient><linearGradient id="linear-gradient-2" x1="0.07" y1="101.26" x2="155.17" y2="101.26" gradientUnits="userSpaceOnUse"><stop offset="0" stop-color="#f14405"/><stop offset="0.49" stop-color="#f17405"/><stop offset="1" stop-color="#f19e05"/></linearGradient><linearGradient id="linear-gradient-3" x1="13" y1="132.9" x2="73.09" y2="89.3" gradientUnits="userSpaceOnUse"><stop offset="0" stop-color="#f14405"/><stop offset="1" stop-color="#f17405"/></linearGradient><linearGradient id="linear-gradient-4" x1="0.07" y1="101.25" x2="103.54" y2="101.25" gradientUnits="userSpaceOnUse"><stop offset="0" stop-color="#f14405"/><stop offset="0.25" stop-color="#f17405"/><stop offset="0.75" stop-color="#f19e05"/><stop offset="1" stop-color="#f1b605"/></linearGradient><linearGradient id="linear-gradient-5" x1="52.56" y1="115.73" x2="86.38" y2="8.8" gradientUnits="userSpaceOnUse"><stop offset="0" stop-color="#f17405"/><stop offset="0.73" stop-color="#f19e05"/><stop offset="1" stop-color="#f1b605"/></linearGradient><linearGradient id="linear-gradient-6" x1="54.01" y1="112.1" x2="86.05" y2="10.79" gradientUnits="userSpaceOnUse"><stop offset="0" stop-color="#fff" stop-opacity="0"/><stop offset="1" stop-color="#fff"/></linearGradient><linearGradient id="linear-gradient-7" x1="38.97" y1="80.22" x2="44.25" y2="76.39" xlink:href="#linear-gradient-3"/><linearGradient id="linear-gradient-8" x1="71.24" y1="78.45" x2="77.77" y2="78.45" xlink:href="#linear-gradient-3"/><linearGradient id="linear-gradient-9" x1="58.36" y1="76.15" x2="68.74" y2="76.15" xlink:href="#linear-gradient-3"/></defs><title>DIEM_Logo_opt1_white</title><path class="cls-1" d="M154.27,61.94a48.44,48.44,0,0,1-34,19.81c6.51,8.42,3,18,3,18-14.41-2.28-23-14.18-23-14.18-7.56,9.74-20.42,14.82-20.42,14.82,4.59,11.45.65,15.18.65,15.18-13.27,1.06-26.35-12.52-26.35-12.52C23,94.61,17.87,75.47,17.87,75.47s6.06-18.85,37.62-25.72a54,54,0,0,1,11.92-8.06A48.39,48.39,0,0,1,80.4,0a77.85,77.85,0,1,0,73.87,61.9Z"/><path class="cls-2" d="M54.15,103.08h0C23,94.61,17.87,75.47,17.87,75.47s6.06-18.85,37.62-25.72a46.93,46.93,0,0,1,3.73-3L1.11,65.36a77.83,77.83,0,1,0,154.06,22C86,143.33,54.74,103.84,54.15,103.08Z"/><path class="cls-3" d="M77.47,115.58c-12.17-.93-23.33-12.51-23.33-12.51C23,94.61,17.87,75.47,17.87,75.47s6.06-18.85,37.62-25.72a53.51,53.51,0,0,1,7-5.28l-61,19.59A78.61,78.61,0,0,0,155.19,87.39C119.54,115.91,94,119.19,77.47,115.58Z"/><path class="cls-4" d="M59.12,115.4a69.19,69.19,0,0,1-4.58-11.84c-.24-.28-.37-.45-.39-.48h0C23,94.61,17.87,75.47,17.87,75.47s6.06-18.85,37.62-25.72a46.93,46.93,0,0,1,3.73-3L1.11,65.36a77.83,77.83,0,0,0,102.43,86.09A68.7,68.7,0,0,1,59.12,115.4Z"/><path class="cls-5" d="M138.51,30.7A31.06,31.06,0,0,0,129.82,20h0A80,80,0,0,0,105.7,5.29l0,0c-.82-.31-1.65-.6-2.48-.89L102.07,4l-.61-.19-.82-.26h0a77.84,77.84,0,0,0-80.2,126.92l1.23.74h0a50.3,50.3,0,0,1-1.74-59.82A39.73,39.73,0,0,1,30,60.73a50.45,50.45,0,0,1,19.84-9.54c1.8-.52,3.7-1,5.7-1.44,0,0,13.76-12.9,27-11.17,0,0,3.74,3.93-1.42,15.13,0,0,12.58,5.73,19.64,15.84,0,0,9.19-11.44,23.7-13,0,0,2.92,9.46-3.6,17.46a30.62,30.62,0,0,0,3.67-1.53A31.17,31.17,0,0,0,138.51,30.7Z"/><path class="cls-6" d="M137.47,32.67a30,30,0,0,0-8.42-10.35l-1-.77.07-.05a81.16,81.16,0,0,0-23-13.78l-.1,0,0,0c-.71-.26-1.46-.53-2.37-.84l-1.08-.37-.87-.28L100.16,6A76.87,76.87,0,0,0,8.84,113.7a78.13,78.13,0,0,0,5.85,9.87A51.22,51.22,0,0,1,21.58,69c4.6-6.12,14.36-15,33.91-19.23,0,0,13.76-12.9,27-11.17,0,0,3.74,3.93-1.42,15.13,0,0,12.58,5.73,19.64,15.84,0,0,9.19-11.44,23.7-13,0,0,3.1,10-4.18,18.15a31,31,0,0,0,3.64-1.5A30.29,30.29,0,0,0,137.47,32.67Z"/><path class="cls-7" d="M44.72,70.62a5.53,5.53,0,1,0,5.39,5.67A5.53,5.53,0,0,0,44.72,70.62Z"/><path class="cls-8" d="M71.24,90.69a15.39,15.39,0,0,0,.91-24.47,25.13,25.13,0,0,1,2.5,13.72A25.9,25.9,0,0,1,71.24,90.69Z"/><path class="cls-9" d="M63.81,77.45a23.8,23.8,0,0,1-4.93,13.8,16.33,16.33,0,0,0-.52-30.2A23,23,0,0,1,63.81,77.45Z"/><path class="cls-10" d="M215.58,129.85H204a7.65,7.65,0,0,1-7.64-7.65V34.32A7.64,7.64,0,0,1,204,26.68h35.27q29.66,0,44.59,15.3Q299,57.28,299,78.36q0,20.9-15.11,36.19-14.92,15.3-44.59,15.3ZM269.3,52.42Q259.41,42,239.27,42H215.39v72.57h23.88q20.14,0,30-10.45a36.06,36.06,0,0,0,10.08-25.74Q279.38,63.06,269.3,52.42Z"/><path class="cls-10" d="M321,84.7V33.77a7.08,7.08,0,0,1,7.09-7.09h4.85A7.08,7.08,0,0,1,340,33.77v89a7.09,7.09,0,0,1-7.09,7.09h-4.85a7.09,7.09,0,0,1-7.09-7.09Z"/><path class="cls-10" d="M367.81,34.32a7.64,7.64,0,0,1,7.64-7.64h68.67a7.64,7.64,0,0,1,7.64,7.64v0A7.64,7.64,0,0,1,444.12,42H386.84V69.59H437.4A7.64,7.64,0,0,1,445,77.23h0a7.65,7.65,0,0,1-7.64,7.65H386.84v29.66h57.28a7.64,7.64,0,0,1,7.64,7.64h0a7.65,7.65,0,0,1-7.64,7.65H375.45a7.65,7.65,0,0,1-7.64-7.65Z"/><path class="cls-10" d="M580.85,90.11l1.06-44.74q-12,27.72-34.32,79.83a7.68,7.68,0,0,1-7,4.65H534.5a7.63,7.63,0,0,1-7-4.51q-10.63-23.75-35.6-80L493,90.11V122.2a7.66,7.66,0,0,1-7.65,7.65H481.6A7.65,7.65,0,0,1,474,122.2V34.32a7.64,7.64,0,0,1,7.64-7.64h16a7.63,7.63,0,0,1,7,4.68q9.78,23.28,32.89,77.68l32-77.62a7.66,7.66,0,0,1,7.07-4.74h15.79a7.64,7.64,0,0,1,7.64,7.64V122.2a7.65,7.65,0,0,1-7.64,7.65h-3.94a7.65,7.65,0,0,1-7.64-7.65Z"/></svg>