<svg id="Layer_1" data-name="Layer 1" xmlns="http://www.w3.org/2000/svg" xmlns:xlink="http://www.w3.org/1999/xlink" viewBox="0 0 1280 332.78"><defs><style>.cls-1{fill:url(#linear-gradient);}.cls-2{fill:url(#linear-gradient-2);}.cls-3{fill:url(#linear-gradient-3);}.cls-4{opacity:0.5;fill:url(#linear-gradient-4);}.cls-5{fill:url(#linear-gradient-5);}.cls-6{opacity:0.2;fill:url(#linear-gradient-6);}.cls-7{fill:url(#linear-gradient-7);}.cls-8{fill:url(#linear-gradient-8);}.cls-9{fill:url(#linear-gradient-9);}.cls-10{fill:#111138;}</style><linearGradient id="linear-gradient" x1="99.89" y1="261.28" x2="169.24" y2="161.96" gradientUnits="userSpaceOnUse"><stop offset="0" stop-color="#ff2205"/><stop offset="0.51" stop-color="#f14405"/><stop offset="1" stop-color="#f17405"/></linearGradient><linearGradient id="linear-gradient-2" x1="0.01" y1="216.01" x2="330.88" y2="216.01" gradientUnits="userSpaceOnUse"><stop offset="0" stop-color="#f14405"/><stop offset="0.49" stop-color="#f17405"/><stop offset="1" stop-color="#f19e05"/></linearGradient><linearGradient id="linear-gradient-3" x1="27.58" y1="283.51" x2="155.77" y2="190.51" gradientUnits="userSpaceOnUse"><stop offset="0" stop-color="#f14405"/><stop offset="1" stop-color="#f17405"/></linearGradient><linearGradient id="linear-gradient-4" x1="0.01" y1="216.01" x2="220.75" y2="216.01" gradientUnits="userSpaceOnUse"><stop offset="0" stop-color="#f14405"/><stop offset="0.25" stop-color="#f17405"/><stop offset="0.75" stop-color="#f19e05"/><stop offset="1" stop-color="#f1b605"/></linearGradient><linearGradient id="linear-gradient-5" x1="111.98" y1="246.88" x2="184.12" y2="18.78" gradientUnits="userSpaceOnUse"><stop offset="0" stop-color="#f17405"/><stop offset="0.73" stop-color="#f19e05"/><stop offset="1" stop-color="#f1b605"/></linearGradient><linearGradient id="linear-gradient-6" x1="115.07" y1="239.14" x2="183.43" y2="23.03" gradientUnits="userSpaceOnUse"><stop offset="0" stop-color="#fff" stop-opacity="0"/><stop offset="1" stop-color="#fff"/></linearGradient><linearGradient id="linear-gradient-7" x1="82.98" y1="171.13" x2="94.25" y2="162.96" xlink:href="#linear-gradient-3"/><linearGradient id="linear-gradient-8" x1="151.83" y1="167.37" x2="165.76" y2="167.37" xlink:href="#linear-gradient-3"/><linearGradient id="linear-gradient-9" x1="124.36" y1="162.45" x2="146.5" y2="162.45" xlink:href="#linear-gradient-3"/></defs><title>DIEM_logo_full_color</title><path class="cls-1" d="M329,132.15a103.38,103.38,0,0,1-72.54,42.25c13.9,18,6.41,38.44,6.41,38.44-30.75-4.87-49.08-30.25-49.08-30.25-16.15,20.79-43.58,31.62-43.58,31.62,9.79,24.43,1.4,32.39,1.4,32.39-28.32,2.26-56.23-26.72-56.23-26.72C48.85,201.83,38,161,38,161s12.92-40.22,80.25-54.87a114.74,114.74,0,0,1,25.42-17.19A103.3,103.3,0,0,1,171.37.08,166.08,166.08,0,1,0,329,132.15Z"/><path class="cls-2" d="M115.37,219.91l0,0C48.85,201.83,38,161,38,161s12.92-40.22,80.25-54.87a99.76,99.76,0,0,1,8-6.48l-124,39.78a166,166,0,1,0,328.66,46.91C183.39,305.77,116.63,221.53,115.37,219.91Z"/><path class="cls-3" d="M165.12,246.58c-26-2-49.78-26.7-49.78-26.7C48.85,201.83,38,161,38,161s12.92-40.22,80.25-54.87a112.29,112.29,0,0,1,14.87-11.25L2.89,136.66a167.7,167.7,0,0,0,328,49.78C254.88,247.27,200.31,254.27,165.12,246.58Z"/><path class="cls-4" d="M126,246.19a148.74,148.74,0,0,1-9.77-25.26c-.52-.61-.79-1-.84-1l0,0C48.85,201.83,38,161,38,161s12.92-40.22,80.25-54.87a99.76,99.76,0,0,1,8-6.48l-124,39.78A166,166,0,0,0,220.75,323.08,146.53,146.53,0,0,1,126,246.19Z"/><path class="cls-5" d="M295.34,65.49a66.25,66.25,0,0,0-18.53-22.78h0a170.56,170.56,0,0,0-51.47-31.44l-.11-.07c-1.75-.66-3.52-1.29-5.29-1.9l-2.34-.79-1.3-.41-1.75-.56h0A166.06,166.06,0,0,0,43.47,278.32l2.62,1.57h0a107.29,107.29,0,0,1-3.72-127.61,84.63,84.63,0,0,1,21.37-22.71,107.28,107.28,0,0,1,42.33-20.36q5.78-1.68,12.17-3.08s29.34-27.52,57.51-23.84c0,0,8,8.39-3,32.29,0,0,26.84,12.22,41.91,33.8,0,0,19.6-24.42,50.56-27.73,0,0,6.23,20.18-7.67,37.26a66.39,66.39,0,0,0,37.83-92.42Z"/><path class="cls-6" d="M293.12,69.7a64.05,64.05,0,0,0-18-22.09L273.06,46l.15-.11a173.67,173.67,0,0,0-49-29.39l-.21-.09-.08-.05c-1.5-.57-3.11-1.15-5-1.81-.77-.26-1.53-.53-2.31-.78l-1.87-.59-1.15-.36A163.31,163.31,0,0,0,92.72,22.72c-81,40.21-114.21,138.82-74,219.83A166.19,166.19,0,0,0,31.2,263.63,109.32,109.32,0,0,1,45.88,147.16c9.82-13.06,30.64-31.95,72.36-41,0,0,29.34-27.52,57.51-23.84,0,0,8,8.39-3,32.29,0,0,26.84,12.22,41.91,33.8,0,0,19.6-24.42,50.56-27.73,0,0,6.61,21.37-8.92,38.74A64.41,64.41,0,0,0,293.12,69.7Z"/><path class="cls-7" d="M95.25,150.65a11.8,11.8,0,1,0,11.5,12.1A11.8,11.8,0,0,0,95.25,150.65Z"/><path class="cls-8" d="M151.83,193.47a32.83,32.83,0,0,0,1.95-52.2,53.47,53.47,0,0,1,5.32,29.27A54.94,54.94,0,0,1,151.83,193.47Z"/><path class="cls-9" d="M136,165.23a50.88,50.88,0,0,1-10.52,29.43,34.84,34.84,0,0,0-1.11-64.42C132,138.65,136.59,151.29,136,165.23Z"/><path class="cls-10" d="M459.75,277H435.06a16.3,16.3,0,0,1-16.3-16.3V73.22a16.3,16.3,0,0,1,16.3-16.3H510.3q63.27,0,95.11,32.63,32.25,32.64,32.24,77.61,0,44.58-32.24,77.21Q573.58,277,510.3,277ZM574.37,111.84Q553.28,89.55,510.3,89.55H459.35V244.37H510.3q43,0,64.07-22.29,21.5-22.68,21.49-54.92Q595.86,134.52,574.37,111.84Z"/><path class="cls-10" d="M684.61,180.69V72a15.12,15.12,0,0,1,15.13-15.12h10.34A15.12,15.12,0,0,1,725.21,72V261.88A15.12,15.12,0,0,1,710.08,277H699.74a15.12,15.12,0,0,1-15.13-15.12Z"/><path class="cls-10" d="M784.51,73.22a16.3,16.3,0,0,1,16.3-16.3H947.3a16.3,16.3,0,0,1,16.3,16.3v0a16.3,16.3,0,0,1-16.3,16.3H825.1v58.9H933a16.3,16.3,0,0,1,16.3,16.3v0a16.3,16.3,0,0,1-16.3,16.3H825.1v63.28H947.3a16.3,16.3,0,0,1,16.3,16.3v0A16.3,16.3,0,0,1,947.3,277H800.81a16.3,16.3,0,0,1-16.3-16.3Z"/><path class="cls-10" d="M1239,192.23l2.24-95.45Q1215.74,155.93,1168,267.1a16.35,16.35,0,0,1-15,9.9h-12.93a16.27,16.27,0,0,1-14.86-9.61q-22.7-50.65-75.94-170.67l2.25,95.51V260.7a16.31,16.31,0,0,1-16.31,16.3h-8a16.3,16.3,0,0,1-16.3-16.3V73.22a16.3,16.3,0,0,1,16.3-16.3h34.16a16.27,16.27,0,0,1,15,10q20.88,49.65,70.17,165.71,23.9-57.95,68.33-165.58A16.31,16.31,0,0,1,1230,56.92h33.69a16.3,16.3,0,0,1,16.3,16.3V260.7a16.3,16.3,0,0,1-16.3,16.3h-8.39a16.3,16.3,0,0,1-16.3-16.3Z"/><path class="cls-10" d="M419.88,304h10a13,13,0,0,1,4.93.9,9.78,9.78,0,0,1,3.77,2.66,12,12,0,0,1,2.42,4.42,23,23,0,0,1,0,12.38,12,12,0,0,1-2.42,4.42,9.78,9.78,0,0,1-3.77,2.66,13,13,0,0,1-4.93.89h-10Zm10,24.28a6.85,6.85,0,0,0,5.11-2A8,8,0,0,0,437,320.4v-4.54A8,8,0,0,0,435,310a6.85,6.85,0,0,0-5.11-2h-5.44v20.22Z"/><path class="cls-10" d="M464.36,332.29l-2.56-7.67H451.21l-2.48,7.67h-4.66L453.72,304h5.77l9.65,28.33Zm-7.76-24.1h-.2l-4.1,12.5h8.36Z"/><path class="cls-10" d="M481.4,308v24.27h-4.58V308h-8.45V304h21.48V308Z"/><path class="cls-10" d="M509.36,332.29l-2.55-7.67H496.22l-2.48,7.67h-4.67L498.73,304h5.76l9.67,28.33Zm-7.75-24.1h-.2l-4.1,12.5h8.36Z"/><path class="cls-10" d="M526.89,332.29v-3.73h3.86V307.7h-3.86V304h12.35v3.74h-3.9v20.86h3.9v3.73Z"/><path class="cls-10" d="M552.63,316.63l-3.13-6h-.12v21.67H545V304h5.11l9.25,15.67,3.13,6h.12V304H567v28.33h-5.12Z"/><path class="cls-10" d="M584.49,308v24.27H579.9V308h-8.44V304h21.47V308Z"/><path class="cls-10" d="M597.39,332.29V304h18.14V308H602v7.88h12.3V320H602v8.28h13.55v4.05Z"/><path class="cls-10" d="M639.69,328h-.17a5.48,5.48,0,0,1-2.41,3.4,9.06,9.06,0,0,1-5.22,1.35,11.54,11.54,0,0,1-4.67-.95,10.33,10.33,0,0,1-3.71-2.8,13.18,13.18,0,0,1-2.43-4.59,20.57,20.57,0,0,1-.87-6.31,20.11,20.11,0,0,1,.89-6.27,13.09,13.09,0,0,1,2.51-4.61,10.52,10.52,0,0,1,3.9-2.82,13.09,13.09,0,0,1,5.07-.95,11.73,11.73,0,0,1,6.45,1.68,11.14,11.14,0,0,1,4.1,4.68L639.4,312a7.34,7.34,0,0,0-2.52-3.24,8,8,0,0,0-9.72.92,8.55,8.55,0,0,0-2,6.11v4.64a8.55,8.55,0,0,0,2,6.11,7.14,7.14,0,0,0,5.42,2.16,9.36,9.36,0,0,0,2.56-.34,7,7,0,0,0,2.13-1,5.13,5.13,0,0,0,1.46-1.68,4.73,4.73,0,0,0,.55-2.34v-2.21h-5.84V317.2H643.7v15.09h-4Z"/><path class="cls-10" d="M654.66,332.29h-4.58V304h12.21a7.93,7.93,0,0,1,6,2.3,9.89,9.89,0,0,1,.79,11.28,7.39,7.39,0,0,1-4.12,2.82l6.13,11.93H666l-5.69-11.44h-5.64ZM662,317a3.88,3.88,0,0,0,2.72-.9,3.44,3.44,0,0,0,1-2.61v-1.94a3.44,3.44,0,0,0-1-2.61A3.89,3.89,0,0,0,662,308h-7.31v9Z"/><path class="cls-10" d="M694.35,332.29l-2.55-7.67H681.2l-2.47,7.67h-4.67L683.72,304h5.76l9.66,28.33Zm-7.75-24.1h-.2l-4.1,12.5h8.36Z"/><path class="cls-10" d="M711.4,308v24.27h-4.59V308h-8.44V304h21.47V308Z"/><path class="cls-10" d="M722.84,332.29v-3.73h3.86V307.7h-3.86V304h12.34v3.74h-3.9v20.86h3.9v3.73Z"/><path class="cls-10" d="M751.9,332.78a12.82,12.82,0,0,1-5-.95A10.52,10.52,0,0,1,743,329a12.92,12.92,0,0,1-2.47-4.59,23.32,23.32,0,0,1,0-12.62,12.92,12.92,0,0,1,2.47-4.59,10.52,10.52,0,0,1,3.86-2.8,13.69,13.69,0,0,1,10,0,10.44,10.44,0,0,1,3.86,2.8,12.93,12.93,0,0,1,2.48,4.59,23.32,23.32,0,0,1,0,12.62,12.93,12.93,0,0,1-2.48,4.59,10.44,10.44,0,0,1-3.86,2.8A12.82,12.82,0,0,1,751.9,332.78Zm0-4.06a7.7,7.7,0,0,0,3-.57,6.36,6.36,0,0,0,2.31-1.65,7.64,7.64,0,0,0,1.48-2.63,10.82,10.82,0,0,0,.52-3.5v-4.48a10.87,10.87,0,0,0-.52-3.5,7.64,7.64,0,0,0-1.48-2.63,6.36,6.36,0,0,0-2.31-1.65,7.7,7.7,0,0,0-3-.57,7.57,7.57,0,0,0-3,.57,6.2,6.2,0,0,0-2.29,1.65,7.33,7.33,0,0,0-1.48,2.63,10.58,10.58,0,0,0-.54,3.5v4.48a10.54,10.54,0,0,0,.54,3.5,7.33,7.33,0,0,0,1.48,2.63,6.2,6.2,0,0,0,2.29,1.65A7.57,7.57,0,0,0,751.9,328.72Z"/><path class="cls-10" d="M777.47,316.63l-3.13-6h-.12v21.67h-4.38V304H775l9.25,15.67,3.13,6h.12V304h4.39v28.33h-5.12Z"/><path class="cls-10" d="M808.4,332.29V304h18.14V308H813v7.88h12.3V320H813v8.28h13.56v4.05Z"/><path class="cls-10" d="M840.09,316.63l-3.12-6h-.12v21.67h-4.38V304h5.11l9.25,15.67,3.12,6h.13V304h4.38v28.33h-5.11Z"/><path class="cls-10" d="M879.67,328h-.17a5.48,5.48,0,0,1-2.41,3.4,9.06,9.06,0,0,1-5.22,1.35,11.54,11.54,0,0,1-4.67-.95,10.33,10.33,0,0,1-3.71-2.8,13.18,13.18,0,0,1-2.43-4.59,20.57,20.57,0,0,1-.87-6.31,20.11,20.11,0,0,1,.89-6.27,13.09,13.09,0,0,1,2.51-4.61,10.52,10.52,0,0,1,3.9-2.82,13.09,13.09,0,0,1,5.07-.95,11.73,11.73,0,0,1,6.45,1.68,11.14,11.14,0,0,1,4.1,4.68L879.38,312a7.34,7.34,0,0,0-2.52-3.24,7.06,7.06,0,0,0-4.3-1.24,7.14,7.14,0,0,0-5.42,2.16,8.55,8.55,0,0,0-2,6.11v4.64a8.55,8.55,0,0,0,2,6.11,7.14,7.14,0,0,0,5.42,2.16,9.36,9.36,0,0,0,2.56-.34,7,7,0,0,0,2.13-1,5.13,5.13,0,0,0,1.46-1.68,4.73,4.73,0,0,0,.55-2.34v-2.21h-5.84V317.2h10.27v15.09h-4Z"/><path class="cls-10" d="M888.84,332.29v-3.73h3.85V307.7h-3.85V304h12.33v3.74h-3.89v20.86h3.89v3.73Z"/><path class="cls-10" d="M914.57,316.63l-3.13-6h-.11v21.67h-4.39V304h5.11l9.26,15.67,3.12,6h.12V304h4.38v28.33h-5.1Z"/><path class="cls-10" d="M935.92,332.29V304h18.14V308H940.5v7.88h12.3V320H940.5v8.28h13.56v4.05Z"/><path class="cls-10" d="M991.23,310.62H991l-2.23,4.59-6.21,11.32-6.21-11.32-2.23-4.59H974v21.67h-4.39V304H975l7.59,14.41h.25L990.42,304h5.2v28.33h-4.39Z"/><path class="cls-10" d="M1006.94,304v17.48a9,9,0,0,0,1.38,5.45q1.38,1.83,4.71,1.83t4.71-1.83a9,9,0,0,0,1.38-5.45V304h4.5v16.73a23,23,0,0,1-.56,5.4,9.15,9.15,0,0,1-1.83,3.75,7.6,7.6,0,0,1-3.27,2.21,17,17,0,0,1-9.86,0,7.6,7.6,0,0,1-3.27-2.21,9.26,9.26,0,0,1-1.82-3.75,22.47,22.47,0,0,1-.57-5.4V304Z"/><path class="cls-10" d="M1030.44,332.29V304H1035v24.28h11.53v4.05Z"/><path class="cls-10" d="M1058.85,308v24.27h-4.59V308h-8.44V304h21.47V308Z"/><path class="cls-10" d="M1070.29,332.29v-3.73h3.86V307.7h-3.86V304h12.35v3.74h-3.9v20.86h3.9v3.73Z"/><path class="cls-10" d="M1086.2,322.19v-4.51h11.25v4.51Z"/><path class="cls-10" d="M1103.45,332.29V304h12.18a7.9,7.9,0,0,1,6.08,2.32,10,10,0,0,1,0,12.42,7.89,7.89,0,0,1-6.08,2.31H1108v11.28ZM1108,317h7.3a3.83,3.83,0,0,0,2.72-.9,3.38,3.38,0,0,0,1-2.6v-1.93a3.36,3.36,0,0,0-1-2.59,3.84,3.84,0,0,0-2.72-.91H1108Z"/><path class="cls-10" d="M1133.24,304v17.48a9,9,0,0,0,1.38,5.45q1.38,1.83,4.71,1.83t4.71-1.83a9,9,0,0,0,1.38-5.45V304h4.5v16.73a22.47,22.47,0,0,1-.57,5.4,9,9,0,0,1-1.82,3.75,7.6,7.6,0,0,1-3.27,2.21,17,17,0,0,1-9.86,0,7.51,7.51,0,0,1-3.26-2.21,8.91,8.91,0,0,1-1.83-3.75,22.47,22.47,0,0,1-.57-5.4V304Z"/><path class="cls-10" d="M1161.33,332.29h-4.59V304H1169a7.89,7.89,0,0,1,6,2.3,9.87,9.87,0,0,1,.8,11.28,7.41,7.41,0,0,1-4.13,2.82l6.13,11.93h-5.11L1167,320.85h-5.64Zm7.3-15.3a3.85,3.85,0,0,0,2.72-.9,3.41,3.41,0,0,0,1-2.61v-1.94a3.41,3.41,0,0,0-1-2.61,3.85,3.85,0,0,0-2.72-.91h-7.3v9Z"/><path class="cls-10" d="M1183.32,332.29V304h12.18a7.93,7.93,0,0,1,6.09,2.32,10,10,0,0,1,0,12.42,7.93,7.93,0,0,1-6.09,2.31h-7.59v11.28Zm4.59-15.34h7.3a3.83,3.83,0,0,0,2.72-.9,3.35,3.35,0,0,0,1-2.6v-1.93a3.33,3.33,0,0,0-1-2.59,3.84,3.84,0,0,0-2.72-.91h-7.3Z"/><path class="cls-10" d="M1219.73,332.78a12.82,12.82,0,0,1-5-.95,10.44,10.44,0,0,1-3.86-2.8,12.93,12.93,0,0,1-2.48-4.59,23.32,23.32,0,0,1,0-12.62,12.93,12.93,0,0,1,2.48-4.59,10.44,10.44,0,0,1,3.86-2.8,13.69,13.69,0,0,1,10,0,10.52,10.52,0,0,1,3.86,2.8,12.92,12.92,0,0,1,2.47,4.59,23.06,23.06,0,0,1,0,12.62,12.92,12.92,0,0,1-2.47,4.59,10.52,10.52,0,0,1-3.86,2.8A12.82,12.82,0,0,1,1219.73,332.78Zm0-4.06a7.61,7.61,0,0,0,3-.57,6.2,6.2,0,0,0,2.31-1.65,7.5,7.5,0,0,0,1.49-2.63,10.81,10.81,0,0,0,.53-3.5v-4.48a10.86,10.86,0,0,0-.53-3.5,7.5,7.5,0,0,0-1.49-2.63,6.2,6.2,0,0,0-2.31-1.65,8.13,8.13,0,0,0-6,0,6.41,6.41,0,0,0-2.3,1.65,7.8,7.8,0,0,0-1.48,2.63,10.87,10.87,0,0,0-.52,3.5v4.48a10.82,10.82,0,0,0,.52,3.5,7.8,7.8,0,0,0,1.48,2.63,6.41,6.41,0,0,0,2.3,1.65A7.57,7.57,0,0,0,1219.73,328.72Z"/><path class="cls-10" d="M1246.07,332.78a12.92,12.92,0,0,1-6.06-1.3,13.41,13.41,0,0,1-4.29-3.49l3.17-3a10.5,10.5,0,0,0,3.31,2.76,8.84,8.84,0,0,0,4.12.93,6,6,0,0,0,4.09-1.22,4.11,4.11,0,0,0,1.38-3.28,3.56,3.56,0,0,0-1-2.64,6.71,6.71,0,0,0-3.45-1.46l-2.52-.45a12,12,0,0,1-6.2-2.72,7,7,0,0,1-2.08-5.35,7.8,7.8,0,0,1,.72-3.39,7,7,0,0,1,2-2.56,9.33,9.33,0,0,1,3.11-1.6,13.73,13.73,0,0,1,4.1-.57,12.92,12.92,0,0,1,5.56,1.11,11.28,11.28,0,0,1,4,3.23l-3.21,2.84a8.26,8.26,0,0,0-2.68-2.27,8.18,8.18,0,0,0-3.94-.85,6.31,6.31,0,0,0-3.77,1,3.31,3.31,0,0,0-1.34,2.84,3.22,3.22,0,0,0,1.09,2.66,8.12,8.12,0,0,0,3.42,1.32l2.51.53a11.86,11.86,0,0,1,6.23,2.76,7.2,7.2,0,0,1,2,5.35,9.2,9.2,0,0,1-.69,3.62,7.61,7.61,0,0,1-2,2.78,9.25,9.25,0,0,1-3.23,1.78A13.77,13.77,0,0,1,1246.07,332.78Z"/><path class="cls-10" d="M1261.86,332.29V304H1280V308h-13.55v7.88h12.29V320h-12.29v8.28H1280v4.05Z"/></svg>