<svg xmlns="http://www.w3.org/2000/svg" xmlns:xlink="http://www.w3.org/1999/xlink" id="Layer_1" data-name="Layer 1" viewBox="0 0 1280 640"><defs><style>.cls-1{fill:url(#linear-gradient)}.cls-2{fill:url(#linear-gradient-2)}.cls-3{fill:url(#linear-gradient-3)}.cls-4{opacity:.5;fill:url(#linear-gradient-4)}.cls-5{fill:url(#linear-gradient-5)}.cls-6{opacity:.2;fill:url(#linear-gradient-6)}.cls-7{fill:url(#linear-gradient-7)}.cls-8{fill:url(#linear-gradient-8)}.cls-9{fill:url(#linear-gradient-9)}.cls-10{fill:#111138}</style><linearGradient id="linear-gradient" x1="99.89" x2="169.24" y1="414.92" y2="315.6" gradientUnits="userSpaceOnUse"><stop offset="0" stop-color="#ff2205"/><stop offset=".51" stop-color="#f14405"/><stop offset="1" stop-color="#f17405"/></linearGradient><linearGradient id="linear-gradient-2" x1=".01" x2="330.88" y1="369.65" y2="369.65" gradientUnits="userSpaceOnUse"><stop offset="0" stop-color="#f14405"/><stop offset=".49" stop-color="#f17405"/><stop offset="1" stop-color="#f19e05"/></linearGradient><linearGradient id="linear-gradient-3" x1="27.58" x2="155.77" y1="437.15" y2="344.15" gradientUnits="userSpaceOnUse"><stop offset="0" stop-color="#f14405"/><stop offset="1" stop-color="#f17405"/></linearGradient><linearGradient id="linear-gradient-4" x1=".01" x2="220.75" y1="369.65" y2="369.65" gradientUnits="userSpaceOnUse"><stop offset="0" stop-color="#f14405"/><stop offset=".25" stop-color="#f17405"/><stop offset=".75" stop-color="#f19e05"/><stop offset="1" stop-color="#f1b605"/></linearGradient><linearGradient id="linear-gradient-5" x1="111.98" x2="184.12" y1="400.52" y2="172.42" gradientUnits="userSpaceOnUse"><stop offset="0" stop-color="#f17405"/><stop offset=".73" stop-color="#f19e05"/><stop offset="1" stop-color="#f1b605"/></linearGradient><linearGradient id="linear-gradient-6" x1="115.07" x2="183.43" y1="392.78" y2="176.67" gradientUnits="userSpaceOnUse"><stop offset="0" stop-color="#fff" stop-opacity="0"/><stop offset="1" stop-color="#fff"/></linearGradient><linearGradient id="linear-gradient-7" x1="82.98" x2="94.25" y1="324.77" y2="316.6" xlink:href="#linear-gradient-3"/><linearGradient id="linear-gradient-8" x1="151.83" x2="165.76" y1="321.01" y2="321.01" xlink:href="#linear-gradient-3"/><linearGradient id="linear-gradient-9" x1="124.36" x2="146.5" y1="316.09" y2="316.09" xlink:href="#linear-gradient-3"/></defs><title>DIEM_logo_full_color_1280x640</title><path d="M329,285.78A103.28,103.28,0,0,1,256.42,328c13.9,18,6.41,38.45,6.41,38.45-30.75-4.87-49.08-30.26-49.08-30.26-16.15,20.79-43.58,31.63-43.58,31.63,9.79,24.43,1.4,32.39,1.4,32.39-28.32,2.26-56.23-26.72-56.23-26.72C48.85,355.46,38,314.63,38,314.63s12.92-40.21,80.25-54.86a114.74,114.74,0,0,1,25.42-17.19,103.3,103.3,0,0,1,27.71-88.86A166.08,166.08,0,1,0,329,285.78Z" class="cls-1"/><path d="M115.37,373.54l0,0C48.85,355.46,38,314.63,38,314.63s12.92-40.21,80.25-54.86a97.13,97.13,0,0,1,8-6.48l-124,39.78A166,166,0,1,0,330.88,340C183.39,459.41,116.63,375.16,115.37,373.54Z" class="cls-2"/><path d="M165.12,400.22c-26-2-49.78-26.7-49.78-26.7C48.85,355.46,38,314.63,38,314.63s12.92-40.21,80.25-54.86a112.29,112.29,0,0,1,14.87-11.25L2.89,290.3a167.7,167.7,0,0,0,328,49.77C254.88,400.9,200.31,407.91,165.12,400.22Z" class="cls-3"/><path d="M126,399.83a148.84,148.84,0,0,1-9.77-25.27c-.52-.6-.79-.95-.84-1l0,0C48.85,355.46,38,314.63,38,314.63s12.92-40.21,80.25-54.86a97.13,97.13,0,0,1,8-6.48l-124,39.78A166,166,0,0,0,220.75,476.72,146.53,146.53,0,0,1,126,399.83Z" class="cls-4"/><path d="M295.34,219.13a66.16,66.16,0,0,0-18.53-22.78h0a170.56,170.56,0,0,0-51.47-31.44l-.11-.07c-1.75-.67-3.52-1.29-5.29-1.9-.78-.27-1.55-.54-2.34-.79-.43-.15-.87-.28-1.3-.42l-1.75-.55h0A166.06,166.06,0,0,0,43.47,432l2.62,1.57h0a107.29,107.29,0,0,1-3.72-127.61A84.79,84.79,0,0,1,63.74,283.2a107.46,107.46,0,0,1,42.33-20.35q5.78-1.68,12.17-3.08s29.34-27.53,57.51-23.84c0,0,8,8.39-3,32.29,0,0,26.84,12.22,41.91,33.8,0,0,19.6-24.42,50.56-27.73,0,0,6.23,20.18-7.67,37.26a66.46,66.46,0,0,0,37.83-92.42Z" class="cls-5"/><path d="M293.12,223.34a64,64,0,0,0-18-22.09l-2.09-1.64.15-.11a173.43,173.43,0,0,0-49-29.39L224,170l-.08-.05c-1.5-.57-3.11-1.15-5-1.81-.77-.27-1.53-.53-2.31-.78l-1.87-.6-1.15-.35a163.31,163.31,0,0,0-120.82,9.93c-81,40.2-114.21,138.82-74,219.83A165.37,165.37,0,0,0,31.2,417.26,109.32,109.32,0,0,1,45.88,300.79c9.82-13.05,30.64-31.94,72.36-41,0,0,29.34-27.53,57.51-23.84,0,0,8,8.39-3,32.29,0,0,26.84,12.22,41.91,33.8,0,0,19.6-24.42,50.56-27.73,0,0,6.61,21.36-8.92,38.73a64.34,64.34,0,0,0,36.86-89.68Z" class="cls-6"/><path d="M95.25,304.28a11.81,11.81,0,1,0,11.5,12.11A11.81,11.81,0,0,0,95.25,304.28Z" class="cls-7"/><path d="M151.83,347.11a32.84,32.84,0,0,0,1.95-52.21,53.52,53.52,0,0,1,5.32,29.28A54.94,54.94,0,0,1,151.83,347.11Z" class="cls-8"/><path d="M136,318.87a50.91,50.91,0,0,1-10.52,29.43,34.85,34.85,0,0,0-1.11-64.43C132,292.29,136.59,304.93,136,318.87Z" class="cls-9"/><path d="M459.75,430.64H435.06a16.3,16.3,0,0,1-16.3-16.3V226.86a16.31,16.31,0,0,1,16.3-16.31H510.3q63.27,0,95.11,32.64,32.25,32.64,32.24,77.61,0,44.57-32.24,77.21-31.83,32.63-95.11,32.63ZM574.37,265.48q-21.09-22.29-64.07-22.29H459.35V398H510.3q43,0,64.07-22.29,21.5-22.7,21.49-54.92Q595.86,288.16,574.37,265.48Z" class="cls-10"/><path d="M684.61,334.33V225.68a15.13,15.13,0,0,1,15.13-15.13h10.34a15.13,15.13,0,0,1,15.13,15.13V415.52a15.12,15.12,0,0,1-15.13,15.12H699.74a15.12,15.12,0,0,1-15.13-15.12Z" class="cls-10"/><path d="M784.51,226.86a16.31,16.31,0,0,1,16.3-16.31H947.3a16.31,16.31,0,0,1,16.3,16.31v0a16.3,16.3,0,0,1-16.3,16.3H825.1v58.9H933a16.3,16.3,0,0,1,16.3,16.3v0A16.3,16.3,0,0,1,933,334.73H825.1V398H947.3a16.3,16.3,0,0,1,16.3,16.3v0a16.3,16.3,0,0,1-16.3,16.3H800.81a16.3,16.3,0,0,1-16.3-16.3Z" class="cls-10"/><path d="M1239,345.87l2.24-95.45q-25.51,59.15-73.21,170.31a16.36,16.36,0,0,1-15,9.91h-12.93a16.27,16.27,0,0,1-14.86-9.61q-22.7-50.65-75.94-170.67l2.25,95.51v68.47a16.31,16.31,0,0,1-16.31,16.3h-8a16.3,16.3,0,0,1-16.3-16.3V226.86a16.31,16.31,0,0,1,16.3-16.31h34.16a16.29,16.29,0,0,1,15,10q20.88,49.66,70.17,165.72,23.9-58,68.33-165.59A16.32,16.32,0,0,1,1230,210.55h33.69a16.31,16.31,0,0,1,16.3,16.31V414.34a16.3,16.3,0,0,1-16.3,16.3h-8.39a16.3,16.3,0,0,1-16.3-16.3Z" class="cls-10"/><path d="M419.88,457.36h10a13,13,0,0,1,4.93.9,9.78,9.78,0,0,1,3.77,2.66,12,12,0,0,1,2.42,4.42,23,23,0,0,1,0,12.38,12,12,0,0,1-2.42,4.42,9.78,9.78,0,0,1-3.77,2.66,13,13,0,0,1-4.93.89h-10Zm10,24.28a6.85,6.85,0,0,0,5.11-2A8,8,0,0,0,437,473.8v-4.54a8,8,0,0,0-1.95-5.85,6.85,6.85,0,0,0-5.11-2h-5.44v20.22Z" class="cls-10"/><path d="M464.36,485.69,461.8,478H451.21l-2.48,7.67h-4.66l9.65-28.33h5.77l9.65,28.33Zm-7.76-24.1h-.2l-4.1,12.5h8.36Z" class="cls-10"/><path d="M481.4,461.42v24.27h-4.58V461.42h-8.45v-4.06h21.48v4.06Z" class="cls-10"/><path d="M509.36,485.69,506.81,478H496.22l-2.48,7.67h-4.67l9.66-28.33h5.76l9.67,28.33Zm-7.75-24.1h-.2l-4.1,12.5h8.36Z" class="cls-10"/><path d="M526.89,485.69V482h3.86V461.1h-3.86v-3.74h12.35v3.74h-3.9V482h3.9v3.73Z" class="cls-10"/><path d="M552.63,470l-3.13-6h-.12v21.67H545V457.36h5.11L559.36,473l3.13,6h.12V457.36H567v28.33h-5.12Z" class="cls-10"/><path d="M584.49,461.42v24.27H579.9V461.42h-8.44v-4.06h21.47v4.06Z" class="cls-10"/><path d="M597.39,485.69V457.36h18.14v4.06H602v7.88h12.3v4.06H602v8.28h13.55v4.05Z" class="cls-10"/><path d="M639.69,481.43h-.17a5.48,5.48,0,0,1-2.41,3.4,9.06,9.06,0,0,1-5.22,1.35,11.54,11.54,0,0,1-4.67-.95,10.33,10.33,0,0,1-3.71-2.8,13.18,13.18,0,0,1-2.43-4.59,20.57,20.57,0,0,1-.87-6.31,20.11,20.11,0,0,1,.89-6.27,13.09,13.09,0,0,1,2.51-4.61,10.52,10.52,0,0,1,3.9-2.82,13.09,13.09,0,0,1,5.07-.95,11.73,11.73,0,0,1,6.45,1.68,11.14,11.14,0,0,1,4.1,4.68l-3.73,2.18a7.34,7.34,0,0,0-2.52-3.24,8,8,0,0,0-9.72.92,8.55,8.55,0,0,0-2,6.11v4.64a8.55,8.55,0,0,0,2,6.11,7.14,7.14,0,0,0,5.42,2.16,9.36,9.36,0,0,0,2.56-.34,7,7,0,0,0,2.13-1,5.13,5.13,0,0,0,1.46-1.68,4.73,4.73,0,0,0,.55-2.34v-2.21h-5.84V470.6H643.7v15.09h-4Z" class="cls-10"/><path d="M654.66,485.69h-4.58V457.36h12.21a7.93,7.93,0,0,1,6,2.3,9.89,9.89,0,0,1,.79,11.28,7.39,7.39,0,0,1-4.12,2.82l6.13,11.93H666l-5.69-11.44h-5.64Zm7.31-15.3a3.88,3.88,0,0,0,2.72-.9,3.44,3.44,0,0,0,1-2.61v-1.94a3.44,3.44,0,0,0-1-2.61,3.89,3.89,0,0,0-2.72-.91h-7.31v9Z" class="cls-10"/><path d="M694.35,485.69,691.8,478H681.2l-2.47,7.67h-4.67l9.66-28.33h5.76l9.66,28.33Zm-7.75-24.1h-.2l-4.1,12.5h8.36Z" class="cls-10"/><path d="M711.4,461.42v24.27h-4.59V461.42h-8.44v-4.06h21.47v4.06Z" class="cls-10"/><path d="M722.84,485.69V482h3.86V461.1h-3.86v-3.74h12.34v3.74h-3.9V482h3.9v3.73Z" class="cls-10"/><path d="M751.9,486.18a12.82,12.82,0,0,1-5-.95,10.52,10.52,0,0,1-3.86-2.8,12.92,12.92,0,0,1-2.47-4.59,23.32,23.32,0,0,1,0-12.62,12.92,12.92,0,0,1,2.47-4.59,10.52,10.52,0,0,1,3.86-2.8,13.69,13.69,0,0,1,10,0,10.44,10.44,0,0,1,3.86,2.8,12.93,12.93,0,0,1,2.48,4.59,23.32,23.32,0,0,1,0,12.62,12.93,12.93,0,0,1-2.48,4.59,10.44,10.44,0,0,1-3.86,2.8A12.82,12.82,0,0,1,751.9,486.18Zm0-4.06a7.7,7.7,0,0,0,3-.57,6.36,6.36,0,0,0,2.31-1.65,7.64,7.64,0,0,0,1.48-2.63,10.82,10.82,0,0,0,.52-3.5v-4.48a10.87,10.87,0,0,0-.52-3.5,7.64,7.64,0,0,0-1.48-2.63,6.36,6.36,0,0,0-2.31-1.65,7.7,7.7,0,0,0-3-.57,7.57,7.57,0,0,0-3,.57,6.2,6.2,0,0,0-2.29,1.65,7.33,7.33,0,0,0-1.48,2.63,10.58,10.58,0,0,0-.54,3.5v4.48a10.54,10.54,0,0,0,.54,3.5,7.33,7.33,0,0,0,1.48,2.63,6.2,6.2,0,0,0,2.29,1.65A7.57,7.57,0,0,0,751.9,482.12Z" class="cls-10"/><path d="M777.47,470l-3.13-6h-.12v21.67h-4.38V457.36H775L784.2,473l3.13,6h.12V457.36h4.39v28.33h-5.12Z" class="cls-10"/><path d="M808.4,485.69V457.36h18.14v4.06H813v7.88h12.3v4.06H813v8.28h13.56v4.05Z" class="cls-10"/><path d="M840.09,470,837,464h-.12v21.67h-4.38V457.36h5.11L846.83,473l3.12,6h.13V457.36h4.38v28.33h-5.11Z" class="cls-10"/><path d="M879.67,481.43h-.17a5.48,5.48,0,0,1-2.41,3.4,9.06,9.06,0,0,1-5.22,1.35,11.54,11.54,0,0,1-4.67-.95,10.33,10.33,0,0,1-3.71-2.8,13.18,13.18,0,0,1-2.43-4.59,20.57,20.57,0,0,1-.87-6.31,20.11,20.11,0,0,1,.89-6.27,13.09,13.09,0,0,1,2.51-4.61,10.52,10.52,0,0,1,3.9-2.82,13.09,13.09,0,0,1,5.07-.95,11.73,11.73,0,0,1,6.45,1.68,11.14,11.14,0,0,1,4.1,4.68l-3.73,2.18a7.34,7.34,0,0,0-2.52-3.24,7.06,7.06,0,0,0-4.3-1.24,7.14,7.14,0,0,0-5.42,2.16,8.55,8.55,0,0,0-2,6.11v4.64a8.55,8.55,0,0,0,2,6.11,7.14,7.14,0,0,0,5.42,2.16,9.36,9.36,0,0,0,2.56-.34,7,7,0,0,0,2.13-1,5.13,5.13,0,0,0,1.46-1.68,4.73,4.73,0,0,0,.55-2.34v-2.21h-5.84V470.6h10.27v15.09h-4Z" class="cls-10"/><path d="M888.84,485.69V482h3.85V461.1h-3.85v-3.74h12.33v3.74h-3.89V482h3.89v3.73Z" class="cls-10"/><path d="M914.57,470l-3.13-6h-.11v21.67h-4.39V457.36h5.11L921.31,473l3.12,6h.12V457.36h4.38v28.33h-5.1Z" class="cls-10"/><path d="M935.92,485.69V457.36h18.14v4.06H940.5v7.88h12.3v4.06H940.5v8.28h13.56v4.05Z" class="cls-10"/><path d="M991.23,464H991l-2.23,4.59-6.21,11.32-6.21-11.32L974.15,464H974v21.67h-4.39V457.36H975l7.59,14.41h.25l7.58-14.41h5.2v28.33h-4.39Z" class="cls-10"/><path d="M1006.94,457.36v17.49a9,9,0,0,0,1.38,5.44q1.38,1.83,4.71,1.83t4.71-1.83a9,9,0,0,0,1.38-5.44V457.36h4.5v16.73a23,23,0,0,1-.56,5.4,9.15,9.15,0,0,1-1.83,3.75,7.6,7.6,0,0,1-3.27,2.21,17,17,0,0,1-9.86,0,7.6,7.6,0,0,1-3.27-2.21,9.26,9.26,0,0,1-1.82-3.75,22.47,22.47,0,0,1-.57-5.4V457.36Z" class="cls-10"/><path d="M1030.44,485.69V457.36H1035v24.28h11.53v4.05Z" class="cls-10"/><path d="M1058.85,461.42v24.27h-4.59V461.42h-8.44v-4.06h21.47v4.06Z" class="cls-10"/><path d="M1070.29,485.69V482h3.86V461.1h-3.86v-3.74h12.35v3.74h-3.9V482h3.9v3.73Z" class="cls-10"/><path d="M1086.2,475.59v-4.51h11.25v4.51Z" class="cls-10"/><path d="M1103.45,485.69V457.36h12.18a7.9,7.9,0,0,1,6.08,2.32,10,10,0,0,1,0,12.42,7.89,7.89,0,0,1-6.08,2.31H1108v11.28Zm4.59-15.34h7.3a3.83,3.83,0,0,0,2.72-.9,3.37,3.37,0,0,0,1-2.6v-1.93a3.36,3.36,0,0,0-1-2.59,3.84,3.84,0,0,0-2.72-.91H1108Z" class="cls-10"/><path d="M1133.24,457.36v17.49a9,9,0,0,0,1.38,5.44q1.38,1.83,4.71,1.83t4.71-1.83a9,9,0,0,0,1.38-5.44V457.36h4.5v16.73a22.47,22.47,0,0,1-.57,5.4,9,9,0,0,1-1.82,3.75,7.6,7.6,0,0,1-3.27,2.21,17,17,0,0,1-9.86,0,7.51,7.51,0,0,1-3.26-2.21,8.91,8.91,0,0,1-1.83-3.75,22.47,22.47,0,0,1-.57-5.4V457.36Z" class="cls-10"/><path d="M1161.33,485.69h-4.59V457.36H1169a7.89,7.89,0,0,1,6,2.3,9.87,9.87,0,0,1,.8,11.28,7.41,7.41,0,0,1-4.13,2.82l6.13,11.93h-5.11L1167,474.25h-5.64Zm7.3-15.3a3.85,3.85,0,0,0,2.72-.9,3.41,3.41,0,0,0,1-2.61v-1.94a3.41,3.41,0,0,0-1-2.61,3.85,3.85,0,0,0-2.72-.91h-7.3v9Z" class="cls-10"/><path d="M1183.32,485.69V457.36h12.18a7.93,7.93,0,0,1,6.09,2.32,10,10,0,0,1,0,12.42,7.93,7.93,0,0,1-6.09,2.31h-7.59v11.28Zm4.59-15.34h7.3a3.83,3.83,0,0,0,2.72-.9,3.33,3.33,0,0,0,1-2.6v-1.93a3.33,3.33,0,0,0-1-2.59,3.84,3.84,0,0,0-2.72-.91h-7.3Z" class="cls-10"/><path d="M1219.73,486.18a12.82,12.82,0,0,1-5-.95,10.44,10.44,0,0,1-3.86-2.8,12.93,12.93,0,0,1-2.48-4.59,23.32,23.32,0,0,1,0-12.62,12.93,12.93,0,0,1,2.48-4.59,10.44,10.44,0,0,1,3.86-2.8,13.69,13.69,0,0,1,10,0,10.52,10.52,0,0,1,3.86,2.8,12.92,12.92,0,0,1,2.47,4.59,23.06,23.06,0,0,1,0,12.62,12.92,12.92,0,0,1-2.47,4.59,10.52,10.52,0,0,1-3.86,2.8A12.82,12.82,0,0,1,1219.73,486.18Zm0-4.06a7.61,7.61,0,0,0,3-.57,6.2,6.2,0,0,0,2.31-1.65,7.5,7.5,0,0,0,1.49-2.63,10.81,10.81,0,0,0,.53-3.5v-4.48a10.86,10.86,0,0,0-.53-3.5,7.5,7.5,0,0,0-1.49-2.63,6.2,6.2,0,0,0-2.31-1.65,8.13,8.13,0,0,0-6,0,6.41,6.41,0,0,0-2.3,1.65,7.8,7.8,0,0,0-1.48,2.63,10.87,10.87,0,0,0-.52,3.5v4.48a10.82,10.82,0,0,0,.52,3.5,7.8,7.8,0,0,0,1.48,2.63,6.41,6.41,0,0,0,2.3,1.65A7.57,7.57,0,0,0,1219.73,482.12Z" class="cls-10"/><path d="M1246.07,486.18a12.92,12.92,0,0,1-6.06-1.3,13.41,13.41,0,0,1-4.29-3.49l3.17-3a10.5,10.5,0,0,0,3.31,2.76,8.84,8.84,0,0,0,4.12.93,6,6,0,0,0,4.09-1.22,4.11,4.11,0,0,0,1.38-3.28,3.56,3.56,0,0,0-1-2.64,6.71,6.71,0,0,0-3.45-1.46l-2.52-.45a12,12,0,0,1-6.2-2.72,7,7,0,0,1-2.08-5.35,7.8,7.8,0,0,1,.72-3.39,7,7,0,0,1,2-2.56,9.33,9.33,0,0,1,3.11-1.6,13.73,13.73,0,0,1,4.1-.57A12.92,12.92,0,0,1,1252,458a11.28,11.28,0,0,1,4,3.23l-3.21,2.84a8.26,8.26,0,0,0-2.68-2.27,8.18,8.18,0,0,0-3.94-.85,6.31,6.31,0,0,0-3.77,1,3.31,3.31,0,0,0-1.34,2.84,3.22,3.22,0,0,0,1.09,2.66,8.12,8.12,0,0,0,3.42,1.32l2.51.53a11.86,11.86,0,0,1,6.23,2.76,7.2,7.2,0,0,1,2,5.35,9.2,9.2,0,0,1-.69,3.62,7.61,7.61,0,0,1-2,2.78,9.25,9.25,0,0,1-3.23,1.78A13.77,13.77,0,0,1,1246.07,486.18Z" class="cls-10"/><path d="M1261.86,485.69V457.36H1280v4.06h-13.55v7.88h12.29v4.06h-12.29v8.28H1280v4.05Z" class="cls-10"/></svg>