<svg xmlns="http://www.w3.org/2000/svg" xmlns:xlink="http://www.w3.org/1999/xlink" width="560pt" height="415pt" viewBox="0 0 560 415.5"><g id="graph0" class="graph" transform="scale(1 1) rotate(0) translate(4 411.5)"><title>%3</title><polygon fill="#fff" stroke="transparent" points="-4 4 -4 -411.5 556 -411.5 556 4 -4 4"/><text x="276" y="-394.7" font-family="Arial" font-size="11" text-anchor="middle">INSERT INTO WITH SELECT FROM TABLE AND 2 WITH STATEMENTS</text><g id="clust1" class="cluster"><title>cluster_1</title><polygon fill="none" stroke="#dddddb" points="8 -199.34 8 -374.06 544 -374.06 544 -199.34 8 -199.34"/><text x="32" y="-362.86" font-family="Arial" font-size="9" text-anchor="middle">QUERY</text></g><g id="clust2" class="cluster"><title>cluster_1A</title><polygon fill="none" stroke="#dddddb" points="318 -212.78 318 -330.38 536 -330.38 536 -212.78 318 -212.78"/><text x="350" y="-319.18" font-family="Arial" font-size="9" text-anchor="middle">AS WITH_1</text></g><g id="clust3" class="cluster"><title>cluster_1B</title><polygon fill="none" stroke="#dddddb" points="104 -212.78 104 -330.38 310 -330.38 310 -212.78 104 -212.78"/><text x="136" y="-319.18" font-family="Arial" font-size="9" text-anchor="middle">AS WITH_2</text></g><g id="node1" class="node"><title>T</title><ellipse cx="258" cy="-83" fill="#d0e2ff" stroke="#e5e5e5" stroke-width="2" rx="45.17" ry="45.17"/><ellipse cx="258" cy="-83" fill="none" stroke="#e5e5e5" stroke-width="2" rx="49.15" ry="49.15"/><text x="258" y="-80.5" font-family="Arial" font-size="10" text-anchor="middle">cloud.revenue</text></g><g id="node2" class="node"><title>A</title><path fill="#d0e2ff" stroke="#e5e5e5" stroke-width="2" d="M515.5,-274C515.5,-274 444.5,-274 444.5,-274 438.5,-274 432.5,-268 432.5,-262 432.5,-262 432.5,-250 432.5,-250 432.5,-244 438.5,-238 444.5,-238 444.5,-238 515.5,-238 515.5,-238 521.5,-238 527.5,-244 527.5,-250 527.5,-250 527.5,-262 527.5,-262 527.5,-268 521.5,-274 515.5,-274"/><text x="480" y="-253.5" font-family="Arial" font-size="10" text-anchor="middle">cloud1.dtl_signing</text></g><g id="edge3" class="edge"><title>A-&gt;T</title><path fill="none" stroke="#000" d="M457.9,-237.98C421.39,-209.85 347.83,-153.19 300.85,-117"/><polygon fill="#000" stroke="#000" points="301.69 -115.45 296.67 -113.78 299.56 -118.22 301.69 -115.45"/></g><g id="node3" class="node"><title>B</title><path fill="#d0e2ff" stroke="#e5e5e5" stroke-width="2" d="M402.5,-274C402.5,-274 337.5,-274 337.5,-274 331.5,-274 325.5,-268 325.5,-262 325.5,-262 325.5,-250 325.5,-250 325.5,-244 331.5,-238 337.5,-238 337.5,-238 402.5,-238 402.5,-238 408.5,-238 414.5,-244 414.5,-250 414.5,-250 414.5,-262 414.5,-262 414.5,-268 408.5,-274 402.5,-274"/><text x="370" y="-253.5" font-family="Arial" font-size="10" text-anchor="middle">cloud.signing_q1</text></g><g id="edge1" class="edge"><title>A-&gt;B</title><path fill="none" stroke="#000" d="M432.29,-256C426.42,-256 420.56,-256 414.69,-256"/></g><g id="node4" class="node"><title>C</title><path fill="#d0e2ff" stroke="#e5e5e5" stroke-width="2" d="M290.5,-274C290.5,-274 225.5,-274 225.5,-274 219.5,-274 213.5,-268 213.5,-262 213.5,-262 213.5,-250 213.5,-250 213.5,-244 219.5,-238 225.5,-238 225.5,-238 290.5,-238 290.5,-238 296.5,-238 302.5,-244 302.5,-250 302.5,-250 302.5,-262 302.5,-262 302.5,-268 296.5,-274 290.5,-274"/><text x="258" y="-253.5" font-family="Arial" font-size="10" text-anchor="middle">cloud.signing_q2</text></g><g id="edge4" class="edge"><title>C-&gt;T</title><path fill="none" stroke="#000" d="M258,-237.98C258,-214.79 258,-172.21 258,-137.69"/><polygon fill="#000" stroke="#000" points="259.75 -137.66 258 -132.66 256.25 -137.66 259.75 -137.66"/></g><g id="node5" class="node"><title>D</title><path fill="#d0e2ff" stroke="#e5e5e5" stroke-width="2" d="M183.5,-274C183.5,-274 124.5,-274 124.5,-274 118.5,-274 112.5,-268 112.5,-262 112.5,-262 112.5,-250 112.5,-250 112.5,-244 118.5,-238 124.5,-238 124.5,-238 183.5,-238 183.5,-238 189.5,-238 195.5,-244 195.5,-250 195.5,-250 195.5,-262 195.5,-262 195.5,-268 189.5,-274 183.5,-274"/><text x="154" y="-253.5" font-family="Arial" font-size="10" text-anchor="middle">cloud.dim_sum</text></g><g id="edge2" class="edge"><title>C-&gt;D</title><path fill="none" stroke="#000" stroke-dasharray="5 2" d="M213.33,-256C209.23,-256 205.13,-256 201.03,-256"/><polygon fill="#000" stroke="#000" points="200.84 -254.25 195.84 -256 200.84 -257.75 200.84 -254.25"/></g><g id="node6" class="node"><title>E</title><path fill="#d0e2ff" stroke="#e5e5e5" stroke-width="2" d="M82,-274C82,-274 28,-274 28,-274 22,-274 16,-268 16,-262 16,-262 16,-250 16,-250 16,-244 22,-238 28,-238 28,-238 82,-238 82,-238 88,-238 94,-244 94,-250 94,-250 94,-262 94,-262 94,-268 88,-274 82,-274"/><text x="55" y="-253.5" font-family="Arial" font-size="10" text-anchor="middle">cloud.USERS</text></g><g id="edge5" class="edge"><title>E-&gt;T</title><path fill="none" stroke="#000" d="M75.21,-237.98C108.11,-210.26 173.91,-154.84 216.93,-118.6"/><polygon fill="#000" stroke="#000" points="218.06 -119.93 220.76 -115.37 215.81 -117.25 218.06 -119.93"/></g></g></svg>