<svg xmlns="http://www.w3.org/2000/svg" xmlns:xlink="http://www.w3.org/1999/xlink" width="107pt" height="199pt" viewBox="0 0 107 198.65"><g id="graph0" class="graph" transform="scale(1 1) rotate(0) translate(4 194.65)"><title>%3</title><polygon fill="#fff" stroke="transparent" points="-4 4 -4 -194.65 103 -194.65 103 4 -4 4"/><text x="49.5" y="-177.85" font-family="Arial" font-size="11" text-anchor="middle">UPDATE TABLE</text><g id="node1" class="node"><title>T</title><ellipse cx="49.5" cy="-49.33" fill="#d0e2ff" stroke="#e5e5e5" stroke-width="2" rx="45.17" ry="45.17"/><ellipse cx="49.5" cy="-49.33" fill="none" stroke="#e5e5e5" stroke-width="2" rx="49.15" ry="49.15"/><text x="49.5" y="-46.83" font-family="Arial" font-size="10" text-anchor="middle">cloud.revenue</text></g><g id="node2" class="node"><title>B</title><polygon fill="#d0e2ff" stroke="#e5e5e5" stroke-width="2" points="52.5 -152.65 52.5 -158.65 58.5 -158.65 58.5 -164.65 40.5 -164.65 40.5 -158.65 46.5 -158.65 46.5 -152.65 52.5 -152.65"/><polyline fill="none" stroke="#e5e5e5" stroke-width="2" points="1.5 -152.65 97.5 -152.65"/><text x="49.5" y="-137.65" font-family="Arial" font-size="10" text-anchor="middle">Update Statement</text></g><g id="edge1" class="edge"><title>B-&gt;T</title><path fill="none" stroke="#000" d="M49.5,-134.47C49.5,-127.25 49.5,-118.4 49.5,-109.17"/><polygon fill="#000" stroke="#000" points="53 -109.07 49.5 -99.07 46 -109.07 53 -109.07"/></g></g></svg>