<?xml version="1.0" encoding="UTF-8" standalone="no"?>
<!DOCTYPE svg PUBLIC "-//W3C//DTD SVG 1.1//EN"
 "http://www.w3.org/Graphics/SVG/1.1/DTD/svg11.dtd">
<!-- Generated by graphviz version 2.43.0 (0)
 -->
<!-- Title: %3 Pages: 1 -->
<svg width="299pt" height="233pt"
 viewBox="0.00 0.00 299.43 232.65" xmlns="http://www.w3.org/2000/svg" xmlns:xlink="http://www.w3.org/1999/xlink">
<g id="graph0" class="graph" transform="scale(1 1) rotate(0) translate(4 228.65)">
<title>%3</title>
<polygon fill="white" stroke="transparent" points="-4,4 -4,-228.65 295.43,-228.65 295.43,4 -4,4"/>
<text text-anchor="middle" x="145.71" y="-211.85" font-family="Arial" font-size="11.00">SELECT FROM</text>
<g id="clust1" class="cluster">
<title>cluster_1</title>
<polygon fill="none" stroke="#dddddb" points="9.96,-126.65 9.96,-196.65 281.47,-196.65 281.47,-126.65 9.96,-126.65"/>
<text text-anchor="middle" x="33.96" y="-185.45" font-family="Arial" font-size="9.00">QUERY</text>
</g>
<!-- T -->
<g id="node1" class="node">
<title>T</title>
<ellipse fill="#d0e2ff" stroke="#e5e5e5" stroke-width="2" cx="129.48" cy="-49" rx="45.17" ry="45.17"/>
<ellipse fill="none" stroke="#e5e5e5" stroke-width="2" cx="129.48" cy="-49" rx="49.15" ry="49.15"/>
<text text-anchor="middle" x="129.48" y="-46.5" font-family="Arial" font-size="10.00">cloud.revenue</text>
</g>
<!-- A -->
<g id="node2" class="node">
<title>A</title>
<path fill="#d0e2ff" stroke="#e5e5e5" stroke-width="2" d="M246.98,-171C246.98,-171 175.98,-171 175.98,-171 169.98,-171 163.98,-165 163.98,-159 163.98,-159 163.98,-147 163.98,-147 163.98,-141 169.98,-135 175.98,-135 175.98,-135 246.98,-135 246.98,-135 252.98,-135 258.98,-141 258.98,-147 258.98,-147 258.98,-159 258.98,-159 258.98,-165 252.98,-171 246.98,-171"/>
<text text-anchor="middle" x="211.48" y="-150.5" font-family="Arial" font-size="10.00">cloud1.dtl_signing</text>
</g>
<!-- B -->
<g id="node3" class="node">
<title>B</title>
<path fill="#d0e2ff" stroke="#e5e5e5" stroke-width="2" d="M106.98,-171C106.98,-171 41.98,-171 41.98,-171 35.98,-171 29.98,-165 29.98,-159 29.98,-159 29.98,-147 29.98,-147 29.98,-141 35.98,-135 41.98,-135 41.98,-135 106.98,-135 106.98,-135 112.98,-135 118.98,-141 118.98,-147 118.98,-147 118.98,-159 118.98,-159 118.98,-165 112.98,-171 106.98,-171"/>
<text text-anchor="middle" x="74.48" y="-150.5" font-family="Arial" font-size="10.00">cloud.signing_q2</text>
</g>
<!-- A&#45;&gt;B -->
<g id="edge1" class="edge">
<title>A&#45;&gt;B</title>
<path fill="none" stroke="black" d="M163.88,-153C150.72,-153 137.56,-153 124.41,-153"/>
<polygon fill="black" stroke="black" points="124.17,-151.25 119.17,-153 124.17,-154.75 124.17,-151.25"/>
</g>
<!-- B&#45;&gt;T -->
<g id="edge2" class="edge">
<title>B:se&#45;&gt;T</title>
<path fill="none" stroke="black" d="M124.35,-126.65C128.74,-119.78 131.31,-111.77 132.69,-103.57"/>
<polygon fill="black" stroke="black" points="134.46,-103.54 133.41,-98.35 130.99,-103.06 134.46,-103.54"/>
</g>
</g>
</svg>
