<?xml version="1.0" encoding="UTF-8" standalone="no"?>
<!DOCTYPE svg PUBLIC "-//W3C//DTD SVG 1.1//EN"
 "http://www.w3.org/Graphics/SVG/1.1/DTD/svg11.dtd">
<!-- Generated by graphviz version 2.43.0 (0)
 -->
<!-- Title: %3 Pages: 1 -->
<svg width="402pt" height="305pt"
 viewBox="0.00 0.00 402.29 304.65" xmlns="http://www.w3.org/2000/svg" xmlns:xlink="http://www.w3.org/1999/xlink">
<g id="graph0" class="graph" transform="scale(1 1) rotate(0) translate(4 300.65)">
<title>%3</title>
<polygon fill="white" stroke="transparent" points="-4,4 -4,-300.65 398.29,-300.65 398.29,4 -4,4"/>
<text text-anchor="middle" x="197.14" y="-283.85" font-family="Arial" font-size="11.00">SELECT FROM WITH 2 LEFT OUTER JOINS AND 1 FULL JOIN</text>
<g id="clust1" class="cluster">
<title>cluster_1</title>
<polygon fill="none" stroke="#dddddb" points="9.59,-126.65 9.59,-268.65 384.7,-268.65 384.7,-126.65 9.59,-126.65"/>
<text text-anchor="middle" x="33.59" y="-257.45" font-family="Arial" font-size="9.00">QUERY</text>
</g>
<!-- T -->
<g id="node1" class="node">
<title>T</title>
<ellipse fill="#d0e2ff" stroke="#e5e5e5" stroke-width="2" cx="194.31" cy="-49" rx="45.17" ry="45.17"/>
<ellipse fill="none" stroke="#e5e5e5" stroke-width="2" cx="194.31" cy="-49" rx="49.15" ry="49.15"/>
<text text-anchor="middle" x="194.31" y="-46.5" font-family="Arial" font-size="10.00">cloud.revenue</text>
</g>
<!-- A -->
<g id="node2" class="node">
<title>A</title>
<path fill="#d0e2ff" stroke="#e5e5e5" stroke-width="2" d="M229.81,-171C229.81,-171 158.81,-171 158.81,-171 152.81,-171 146.81,-165 146.81,-159 146.81,-159 146.81,-147 146.81,-147 146.81,-141 152.81,-135 158.81,-135 158.81,-135 229.81,-135 229.81,-135 235.81,-135 241.81,-141 241.81,-147 241.81,-147 241.81,-159 241.81,-159 241.81,-165 235.81,-171 229.81,-171"/>
<text text-anchor="middle" x="194.31" y="-150.5" font-family="Arial" font-size="10.00">cloud1.dtl_signing</text>
</g>
<!-- A&#45;&gt;T -->
<g id="edge4" class="edge">
<title>A:s&#45;&gt;T</title>
<path fill="none" stroke="black" d="M194.31,-126.65C194.31,-119.07 194.31,-111.25 194.31,-103.65"/>
<polygon fill="black" stroke="black" points="196.06,-103.42 194.31,-98.42 192.56,-103.42 196.06,-103.42"/>
</g>
<!-- B -->
<g id="node3" class="node">
<title>B</title>
<path fill="#d0e2ff" stroke="#e5e5e5" stroke-width="2" d="M354.81,-243C354.81,-243 289.81,-243 289.81,-243 283.81,-243 277.81,-237 277.81,-231 277.81,-231 277.81,-219 277.81,-219 277.81,-213 283.81,-207 289.81,-207 289.81,-207 354.81,-207 354.81,-207 360.81,-207 366.81,-213 366.81,-219 366.81,-219 366.81,-231 366.81,-231 366.81,-237 360.81,-243 354.81,-243"/>
<text text-anchor="middle" x="322.31" y="-222.5" font-family="Arial" font-size="10.00">cloud.signing_q1</text>
</g>
<!-- B&#45;&gt;A -->
<g id="edge1" class="edge">
<title>B&#45;&gt;A</title>
<path fill="none" stroke="black" stroke-dasharray="5,2" d="M291,-206.88C272.71,-196.88 249.56,-184.21 230.5,-173.79"/>
<polygon fill="black" stroke="black" points="230.97,-172.05 225.74,-171.19 229.29,-175.12 230.97,-172.05"/>
</g>
<!-- C -->
<g id="node4" class="node">
<title>C</title>
<path fill="#d0e2ff" stroke="#e5e5e5" stroke-width="2" d="M226.81,-243C226.81,-243 161.81,-243 161.81,-243 155.81,-243 149.81,-237 149.81,-231 149.81,-231 149.81,-219 149.81,-219 149.81,-213 155.81,-207 161.81,-207 161.81,-207 226.81,-207 226.81,-207 232.81,-207 238.81,-213 238.81,-219 238.81,-219 238.81,-231 238.81,-231 238.81,-237 232.81,-243 226.81,-243"/>
<text text-anchor="middle" x="194.31" y="-222.5" font-family="Arial" font-size="10.00">cloud.signing_q2</text>
</g>
<!-- C&#45;&gt;A -->
<g id="edge2" class="edge">
<title>C&#45;&gt;A</title>
<path fill="none" stroke="black" stroke-dasharray="5,2" d="M194.31,-206.7C194.31,-197.46 194.31,-185.98 194.31,-176.11"/>
<polygon fill="black" stroke="black" points="196.06,-176.1 194.31,-171.1 192.56,-176.1 196.06,-176.1"/>
</g>
<!-- D -->
<g id="node5" class="node">
<title>D</title>
<path fill="#d0e2ff" stroke="#e5e5e5" stroke-width="2" d="M98.81,-243C98.81,-243 39.81,-243 39.81,-243 33.81,-243 27.81,-237 27.81,-231 27.81,-231 27.81,-219 27.81,-219 27.81,-213 33.81,-207 39.81,-207 39.81,-207 98.81,-207 98.81,-207 104.81,-207 110.81,-213 110.81,-219 110.81,-219 110.81,-231 110.81,-231 110.81,-237 104.81,-243 98.81,-243"/>
<text text-anchor="middle" x="69.31" y="-222.5" font-family="Arial" font-size="10.00">cloud.dim_sum</text>
</g>
<!-- D&#45;&gt;A -->
<g id="edge3" class="edge">
<title>D&#45;&gt;A</title>
<path fill="none" stroke="black" d="M99.89,-206.88C117.75,-196.88 140.36,-184.21 158.97,-173.79"/>
<polygon fill="black" stroke="black" points="160.11,-175.16 163.61,-171.19 158.4,-172.11 160.11,-175.16"/>
</g>
</g>
</svg>
