<?xml version="1.0" encoding="UTF-8" standalone="no"?>
<!DOCTYPE svg PUBLIC "-//W3C//DTD SVG 1.1//EN"
 "http://www.w3.org/Graphics/SVG/1.1/DTD/svg11.dtd">
<!-- Generated by graphviz version 2.43.0 (0)
 -->
<!-- Title: %3 Pages: 1 -->
<svg width="448pt" height="337pt"
 viewBox="0.00 0.00 448.00 336.65" xmlns="http://www.w3.org/2000/svg" xmlns:xlink="http://www.w3.org/1999/xlink">
<g id="graph0" class="graph" transform="scale(1 1) rotate(0) translate(4 332.65)">
<title>%3</title>
<polygon fill="white" stroke="transparent" points="-4,4 -4,-332.65 444,-332.65 444,4 -4,4"/>
<text text-anchor="middle" x="220" y="-315.85" font-family="Arial" font-size="11.00">SELECT FROM WITH 2 UNION ALL</text>
<g id="clust1" class="cluster">
<title>cluster_1</title>
<polygon fill="none" stroke="#dddddb" points="14.08,-118.65 14.08,-300.65 425.92,-300.65 425.92,-118.65 14.08,-118.65"/>
<text text-anchor="middle" x="46.58" y="-289.45" font-family="Arial" font-size="9.00">UNION ALL</text>
</g>
<g id="clust2" class="cluster">
<title>cluster_1A</title>
<polygon fill="none" stroke="#dddddb" points="28.16,-204.65 28.16,-274.65 411.84,-274.65 411.84,-204.65 28.16,-204.65"/>
<text text-anchor="middle" x="53.16" y="-263.45" font-family="Arial" font-size="9.00">Select 1</text>
</g>
<g id="clust3" class="cluster">
<title>cluster_1B</title>
<polygon fill="none" stroke="#dddddb" points="42.24,-126.65 42.24,-196.65 404.8,-196.65 404.8,-126.65 42.24,-126.65"/>
<text text-anchor="middle" x="67.24" y="-185.45" font-family="Arial" font-size="9.00">Select 2</text>
</g>
<!-- T -->
<g id="node1" class="node">
<title>T</title>
<ellipse fill="#d0e2ff" stroke="#e5e5e5" stroke-width="2" cx="204.44" cy="-49" rx="45.17" ry="45.17"/>
<ellipse fill="none" stroke="#e5e5e5" stroke-width="2" cx="204.44" cy="-49" rx="49.15" ry="49.15"/>
<text text-anchor="middle" x="204.44" y="-46.5" font-family="Arial" font-size="10.00">cloud.revenue</text>
</g>
<!-- A -->
<g id="node2" class="node">
<title>A</title>
<path fill="#d0e2ff" stroke="#e5e5e5" stroke-width="2" d="M348.94,-249C348.94,-249 277.94,-249 277.94,-249 271.94,-249 265.94,-243 265.94,-237 265.94,-237 265.94,-225 265.94,-225 265.94,-219 271.94,-213 277.94,-213 277.94,-213 348.94,-213 348.94,-213 354.94,-213 360.94,-219 360.94,-225 360.94,-225 360.94,-237 360.94,-237 360.94,-243 354.94,-249 348.94,-249"/>
<text text-anchor="middle" x="313.44" y="-228.5" font-family="Arial" font-size="10.00">cloud1.dtl_signing</text>
</g>
<!-- B -->
<g id="node3" class="node">
<title>B</title>
<path fill="#d0e2ff" stroke="#e5e5e5" stroke-width="2" d="M151.94,-249C151.94,-249 86.94,-249 86.94,-249 80.94,-249 74.94,-243 74.94,-237 74.94,-237 74.94,-225 74.94,-225 74.94,-219 80.94,-213 86.94,-213 86.94,-213 151.94,-213 151.94,-213 157.94,-213 163.94,-219 163.94,-225 163.94,-225 163.94,-237 163.94,-237 163.94,-243 157.94,-249 151.94,-249"/>
<text text-anchor="middle" x="119.44" y="-228.5" font-family="Arial" font-size="10.00">cloud.signing_q1</text>
</g>
<!-- A&#45;&gt;B -->
<g id="edge1" class="edge">
<title>A&#45;&gt;B</title>
<path fill="none" stroke="black" d="M265.91,-231C231.99,-231 198.07,-231 164.15,-231"/>
</g>
<!-- C -->
<g id="node4" class="node">
<title>C</title>
<path fill="#d0e2ff" stroke="#e5e5e5" stroke-width="2" d="M345.94,-171C345.94,-171 280.94,-171 280.94,-171 274.94,-171 268.94,-165 268.94,-159 268.94,-159 268.94,-147 268.94,-147 268.94,-141 274.94,-135 280.94,-135 280.94,-135 345.94,-135 345.94,-135 351.94,-135 357.94,-141 357.94,-147 357.94,-147 357.94,-159 357.94,-159 357.94,-165 351.94,-171 345.94,-171"/>
<text text-anchor="middle" x="313.44" y="-150.5" font-family="Arial" font-size="10.00">cloud.signing_q2</text>
</g>
<!-- A&#45;&gt;C -->
<!-- D -->
<g id="node5" class="node">
<title>D</title>
<path fill="#d0e2ff" stroke="#e5e5e5" stroke-width="2" d="M159.94,-171C159.94,-171 100.94,-171 100.94,-171 94.94,-171 88.94,-165 88.94,-159 88.94,-159 88.94,-147 88.94,-147 88.94,-141 94.94,-135 100.94,-135 100.94,-135 159.94,-135 159.94,-135 165.94,-135 171.94,-141 171.94,-147 171.94,-147 171.94,-159 171.94,-159 171.94,-165 165.94,-171 159.94,-171"/>
<text text-anchor="middle" x="130.44" y="-150.5" font-family="Arial" font-size="10.00">cloud.dim_sum</text>
</g>
<!-- C&#45;&gt;D -->
<g id="edge2" class="edge">
<title>C&#45;&gt;D</title>
<path fill="none" stroke="black" stroke-dasharray="5,2" d="M268.77,-153C238.36,-153 207.95,-153 177.54,-153"/>
<polygon fill="black" stroke="black" points="177.26,-151.25 172.26,-153 177.26,-154.75 177.26,-151.25"/>
</g>
<!-- D&#45;&gt;T -->
<g id="edge4" class="edge">
<title>D:se&#45;&gt;T</title>
<path fill="none" stroke="black" d="M184.21,-118.66C187.3,-113.51 189.93,-108.05 192.16,-102.55"/>
<polygon fill="black" stroke="black" points="193.89,-102.92 194.05,-97.63 190.62,-101.66 193.89,-102.92"/>
</g>
</g>
</svg>
