<svg xmlns="http://www.w3.org/2000/svg" xmlns:xlink="http://www.w3.org/1999/xlink" width="266pt" height="235pt" viewBox="0 0 266.01 234.65"><g id="graph0" class="graph" transform="scale(1 1) rotate(0) translate(4 230.65)"><title>%3</title><polygon fill="#fff" stroke="transparent" points="-4 4 -4 -230.65 262.01 -230.65 262.01 4 -4 4"/><text x="129.01" y="-213.85" font-family="Arial" font-size="11" text-anchor="middle">UPDATE WITH SELECT</text><g id="clust1" class="cluster"><title>cluster_1</title><polygon fill="none" stroke="#dddddb" points="22.5 -126.65 22.5 -198.65 245.45 -198.65 245.45 -126.65 22.5 -126.65"/><text x="65" y="-185.85" font-family="Arial" font-size="11" text-anchor="middle">Update Select</text></g><g id="node1" class="node"><title>T</title><ellipse cx="77.88" cy="-49" fill="#d0e2ff" stroke="#e5e5e5" stroke-width="2" rx="45.17" ry="45.17"/><ellipse cx="77.88" cy="-49" fill="none" stroke="#e5e5e5" stroke-width="2" rx="49.15" ry="49.15"/><text x="77.88" y="-46.5" font-family="Arial" font-size="10" text-anchor="middle">cloud.revenue</text></g><g id="node2" class="node"><title>D</title><path fill="#d0e2ff" stroke="#e5e5e5" stroke-width="2" d="M205.88,-171C205.88,-171 175.88,-171 175.88,-171 169.88,-171 163.88,-165 163.88,-159 163.88,-159 163.88,-147 163.88,-147 163.88,-141 169.88,-135 175.88,-135 175.88,-135 205.88,-135 205.88,-135 211.88,-135 217.88,-141 217.88,-147 217.88,-147 217.88,-159 217.88,-159 217.88,-165 211.88,-171 205.88,-171"/><text x="190.88" y="-150.5" font-family="Arial" font-size="10" text-anchor="middle">D</text></g><g id="node3" class="node"><title>C</title><path fill="#d0e2ff" stroke="#e5e5e5" stroke-width="2" d="M92.88,-171C92.88,-171 62.88,-171 62.88,-171 56.88,-171 50.88,-165 50.88,-159 50.88,-159 50.88,-147 50.88,-147 50.88,-141 56.88,-135 62.88,-135 62.88,-135 92.88,-135 92.88,-135 98.88,-135 104.88,-141 104.88,-147 104.88,-147 104.88,-159 104.88,-159 104.88,-165 98.88,-171 92.88,-171"/><text x="77.88" y="-150.5" font-family="Arial" font-size="10" text-anchor="middle">C</text></g><g id="edge1" class="edge"><title>D-&gt;C</title><path fill="none" stroke="#000" d="M163.78,-153C144.27,-153 124.76,-153 105.25,-153"/></g><g id="edge2" class="edge"><title>C-&gt;T</title><path fill="none" stroke="#000" d="M77.88,-126.66C77.88,-119.65 77.88,-111.76 77.88,-103.78"/><polygon fill="#000" stroke="#000" points="77.88 -98.63 80.13 -103.63 77.88 -101.13 77.88 -103.63 77.88 -103.63 77.88 -103.63 77.88 -101.13 75.63 -103.63 77.88 -98.63 77.88 -98.63"/></g></g></svg>