<svg xmlns="http://www.w3.org/2000/svg" xmlns:xlink="http://www.w3.org/1999/xlink" width="434pt" height="370pt" viewBox="0 0 434 369.54"><g id="graph0" class="graph" transform="scale(1 1) rotate(0) translate(4 365.54)"><title>%3</title><polygon fill="#fff" stroke="transparent" points="-4 4 -4 -365.54 430 -365.54 430 4 -4 4"/><text x="213" y="-348.74" font-family="Arial" font-size="11" text-anchor="middle">Query with Sub Select</text><g id="clust1" class="cluster"><title>cluster_1</title><polygon fill="none" stroke="#dddddb" points="8 -142.93 8 -332.51 418 -332.51 418 -142.93 8 -142.93"/><text x="28.5" y="-321.31" font-family="Arial" font-size="9" text-anchor="middle">Query</text></g><g id="clust2" class="cluster"><title>cluster_2</title><polygon fill="#ebebeb" stroke="#dddddb" points="207 -224.18 207 -303.17 410 -303.17 410 -224.18 207 -224.18"/><text x="237.5" y="-291.97" font-family="Arial" font-size="9" text-anchor="middle">Sub Select</text></g><g id="node1" class="node"><title>A</title><ellipse cx="169" cy="-56" fill="#d0e2ff" stroke="#e5e5e5" stroke-width="2" rx="45.17" ry="45.17"/><ellipse cx="169" cy="-56" fill="none" stroke="#e5e5e5" stroke-width="2" rx="49.15" ry="49.15"/><text x="169" y="-53.5" font-family="Arial" font-size="10" text-anchor="middle">cloud.revenue</text></g><g id="node2" class="node"><title>B</title><path fill="#d0e2ff" stroke="#e5e5e5" stroke-width="2" d="M252.5,-190C252.5,-190 181.5,-190 181.5,-190 175.5,-190 169.5,-184 169.5,-178 169.5,-178 169.5,-166 169.5,-166 169.5,-160 175.5,-154 181.5,-154 181.5,-154 252.5,-154 252.5,-154 258.5,-154 264.5,-160 264.5,-166 264.5,-166 264.5,-178 264.5,-178 264.5,-184 258.5,-190 252.5,-190"/><text x="217" y="-169.5" font-family="Arial" font-size="10" text-anchor="middle">cloud1.dtl_signing</text></g><g id="edge5" class="edge"><title>B:sw-&gt;A</title><path fill="none" stroke="#000" d="M161.64,-142.93C156.37,-132.82 155.06,-120.75 155.77,-108.88"/><polygon fill="#000" stroke="#000" points="157.51 -109.02 156.18 -103.89 154.03 -108.73 157.51 -109.02"/></g><g id="node3" class="node"><title>C</title><path fill="#d0e2ff" stroke="#e5e5e5" stroke-width="2" d="M389.5,-272C389.5,-272 330.5,-272 330.5,-272 324.5,-272 318.5,-266 318.5,-260 318.5,-260 318.5,-248 318.5,-248 318.5,-242 324.5,-236 330.5,-236 330.5,-236 389.5,-236 389.5,-236 395.5,-236 401.5,-242 401.5,-248 401.5,-248 401.5,-260 401.5,-260 401.5,-266 395.5,-272 389.5,-272"/><text x="360" y="-251.5" font-family="Arial" font-size="10" text-anchor="middle">cloud.dim_sum</text></g><g id="edge3" class="edge"><title>C-&gt;B:ne</title><path fill="none" stroke="#000" d="M308.48,-224.18C295.03,-215.43 280.97,-205.13 268.98,-193.86"/><polygon fill="#000" stroke="#000" points="269.81 -192.22 265 -190 267.37 -194.74 269.81 -192.22"/></g><g id="node4" class="node"><title>D</title><path fill="#d0e2ff" stroke="#e5e5e5" stroke-width="2" d="M288.5,-272C288.5,-272 227.5,-272 227.5,-272 221.5,-272 215.5,-266 215.5,-260 215.5,-260 215.5,-248 215.5,-248 215.5,-242 221.5,-236 227.5,-236 227.5,-236 288.5,-236 288.5,-236 294.5,-236 300.5,-242 300.5,-248 300.5,-248 300.5,-260 300.5,-260 300.5,-266 294.5,-272 288.5,-272"/><text x="258" y="-251.5" font-family="Arial" font-size="10" text-anchor="middle">cloud2.pad_thai</text></g><g id="edge2" class="edge"><title>D-&gt;C</title><path fill="none" stroke="#000" d="M300.63,-254C304.76,-254 308.89,-254 313.03,-254"/><polygon fill="#000" stroke="#000" points="313.26 -255.75 318.26 -254 313.26 -252.25 313.26 -255.75"/></g><g id="node5" class="node"><title>E</title><path fill="#d0e2ff" stroke="#e5e5e5" stroke-width="2" d="M185,-272C185,-272 135,-272 135,-272 129,-272 123,-266 123,-260 123,-260 123,-248 123,-248 123,-242 129,-236 135,-236 135,-236 185,-236 185,-236 191,-236 197,-242 197,-248 197,-248 197,-260 197,-260 197,-266 191,-272 185,-272"/><text x="160" y="-251.5" font-family="Arial" font-size="10" text-anchor="middle">cloud.billtogo</text></g><g id="edge4" class="edge"><title>E:sw-&gt;B</title><path fill="none" stroke="#000" stroke-dasharray="5 2" d="M123,-235C103.71,-215.71 133.38,-199.03 164.36,-187.84"/><polygon fill="#000" stroke="#000" points="165.2 -189.4 169.34 -186.1 164.04 -186.1 165.2 -189.4"/></g><g id="node6" class="node"><title>F</title><path fill="#d0e2ff" stroke="#e5e5e5" stroke-width="2" d="M92.5,-272C92.5,-272 27.5,-272 27.5,-272 21.5,-272 15.5,-266 15.5,-260 15.5,-260 15.5,-248 15.5,-248 15.5,-242 21.5,-236 27.5,-236 27.5,-236 92.5,-236 92.5,-236 98.5,-236 104.5,-242 104.5,-248 104.5,-248 104.5,-260 104.5,-260 104.5,-266 98.5,-272 92.5,-272"/><text x="60" y="-251.5" font-family="Arial" font-size="10" text-anchor="middle">cloud.signing_q2</text></g><g id="edge1" class="edge"><title>F:s-&gt;B</title><path fill="none" stroke="#000" d="M60,-235C60,-189.15 118.65,-176.18 164.26,-173.03"/><polygon fill="#000" stroke="#000" points="164.59 -174.77 169.47 -172.71 164.37 -171.27 164.59 -174.77"/></g></g></svg>